<svg version="1.1" viewBox="0.0 0.0 907.501312335958 128.0" fill="none" stroke="none" stroke-linecap="square" stroke-miterlimit="10" xmlns:xlink="http://www.w3.org/1999/xlink" xmlns="http://www.w3.org/2000/svg"><clipPath id="p.0"><path d="m0 0l907.50134 0l0 128.0l-907.50134 0l0 -128.0z" clip-rule="nonzero"/></clipPath><g clip-path="url(#p.0)"><path fill="#000000" fill-opacity="0.0" d="m0 0l907.50134 0l0 128.0l-907.50134 0z" fill-rule="evenodd"/><path fill="#b7b7b7" d="m362.51837 20.967192l131.49606 0l0 26.015749l-131.49606 0z" fill-rule="evenodd"/><path stroke="#434343" stroke-width="2.0" stroke-linejoin="round" stroke-linecap="butt" d="m362.51837 20.967192l131.49606 0l0 26.015749l-131.49606 0z" fill-rule="evenodd"/><path fill="#000000" d="m372.64337 39.055065l0 -10.484375l3.96875 0q1.046875 0 1.59375 0.09375q0.765625 0.125 1.28125 0.484375q0.53125 0.359375 0.84375 1.015625q0.328125 0.65625 0.328125 1.4375q0 1.328125 -0.859375 2.265625q-0.84375 0.921875 -3.078125 0.921875l-2.6875 0l0 4.265625l-1.390625 0zm1.390625 -5.5l2.71875 0q1.34375 0 1.90625 -0.5q0.5625 -0.5 0.5625 -1.40625q0 -0.671875 -0.328125 -1.140625q-0.328125 -0.46875 -0.875 -0.609375q-0.359375 -0.09375 -1.296875 -0.09375l-2.6875 0l0 3.75zm8.213104 5.5l0 -7.59375l1.15625 0l0 1.140625q0.453125 -0.796875 0.828125 -1.046875q0.375 -0.265625 0.8125 -0.265625q0.65625 0 1.328125 0.40625l-0.4375 1.203125q-0.46875 -0.28125 -0.953125 -0.28125q-0.421875 0 -0.765625 0.25q-0.328125 0.25 -0.46875 0.703125q-0.21875 0.6875 -0.21875 1.5l0 3.984375l-1.28125 0zm4.4118958 -3.796875q0 -2.109375 1.171875 -3.125q0.984375 -0.84375 2.390625 -0.84375q1.578125 0 2.5625 1.03125q1.0 1.015625 1.0 2.828125q0 1.46875 -0.4375 2.3125q-0.4375 0.828125 -1.28125 1.296875q-0.84375 0.46875 -1.84375 0.46875q-1.59375 0 -2.578125 -1.015625q-0.984375 -1.03125 -0.984375 -2.953125zm1.328125 0q0 1.453125 0.625 2.1875q0.640625 0.71875 1.609375 0.71875q0.96875 0 1.59375 -0.71875q0.640625 -0.734375 0.640625 -2.234375q0 -1.40625 -0.640625 -2.125q-0.640625 -0.734375 -1.59375 -0.734375q-0.96875 0 -1.609375 0.71875q-0.625 0.71875 -0.625 2.1875zm9.416748 3.796875l-2.890625 -7.59375l1.359375 0l1.625 4.546875q0.265625 0.734375 0.5 1.53125q0.15625 -0.609375 0.46875 -1.453125l1.6875 -4.625l1.328125 0l-2.875 7.59375l-1.203125 0zm5.21875 -9.015625l0 -1.46875l1.296875 0l0 1.46875l-1.296875 0zm0 9.015625l0 -7.59375l1.296875 0l0 7.59375l-1.296875 0zm8.178009 0l0 -0.953125q-0.71875 1.125 -2.125 1.125q-0.90625 0 -1.671875 -0.5q-0.75 -0.5 -1.171875 -1.390625q-0.421875 -0.90625 -0.421875 -2.078125q0 -1.140625 0.375 -2.0625q0.390625 -0.921875 1.140625 -1.40625q0.765625 -0.5 1.703125 -0.5q0.6875 0 1.21875 0.296875q0.53125 0.28125 0.875 0.734375l0 -3.75l1.28125 0l0 10.484375l-1.203125 0zm-4.0625 -3.796875q0 1.46875 0.609375 2.1875q0.625 0.71875 1.453125 0.71875q0.84375 0 1.4375 -0.6875q0.59375 -0.6875 0.59375 -2.109375q0 -1.5625 -0.609375 -2.28125q-0.59375 -0.734375 -1.484375 -0.734375q-0.84375 0 -1.421875 0.703125q-0.578125 0.703125 -0.578125 2.203125zm12.494873 1.34375l1.328125 0.171875q-0.3125 1.171875 -1.171875 1.8125q-0.84375 0.640625 -2.171875 0.640625q-1.671875 0 -2.65625 -1.015625q-0.96875 -1.03125 -0.96875 -2.890625q0 -1.921875 0.984375 -2.96875q1.0 -1.0625 2.578125 -1.0625q1.515625 0 2.484375 1.03125q0.96875 1.03125 0.96875 2.921875q0 0.109375 -0.015625 0.34375l-5.65625 0q0.0625 1.25 0.703125 1.921875q0.640625 0.65625 1.59375 0.65625q0.703125 0 1.203125 -0.359375q0.5 -0.375 0.796875 -1.203125zm-4.234375 -2.078125l4.25 0q-0.09375 -0.953125 -0.484375 -1.4375q-0.625 -0.75 -1.609375 -0.75q-0.875 0 -1.484375 0.59375q-0.609375 0.59375 -0.671875 1.59375zm7.1667175 4.53125l0 -7.59375l1.15625 0l0 1.140625q0.453125 -0.796875 0.828125 -1.046875q0.375 -0.265625 0.8125 -0.265625q0.65625 0 1.328125 0.40625l-0.4375 1.203125q-0.46875 -0.28125 -0.953125 -0.28125q-0.421875 0 -0.765625 0.25q-0.328125 0.25 -0.46875 0.703125q-0.21875 0.6875 -0.21875 1.5l0 3.984375l-1.28125 0zm5.2868958 0l0 -10.484375l1.390625 0l0 10.484375l-1.390625 0zm3.681366 0l0 -7.59375l1.15625 0l0 1.078125q0.84375 -1.25 2.421875 -1.25q0.6875 0 1.265625 0.25q0.578125 0.234375 0.859375 0.640625q0.28125 0.40625 0.40625 0.953125q0.0625 0.359375 0.0625 1.25l0 4.671875l-1.28125 0l0 -4.625q0 -0.78125 -0.15625 -1.171875q-0.15625 -0.390625 -0.546875 -0.625q-0.375 -0.234375 -0.890625 -0.234375q-0.8125 0 -1.421875 0.53125q-0.59375 0.515625 -0.59375 1.96875l0 4.15625l-1.28125 0zm10.963593 -1.15625l0.1875 1.140625q-0.546875 0.109375 -0.984375 0.109375q-0.6875 0 -1.078125 -0.21875q-0.390625 -0.21875 -0.546875 -0.578125q-0.15625 -0.359375 -0.15625 -1.515625l0 -4.375l-0.953125 0l0 -1.0l0.953125 0l0 -1.890625l1.28125 -0.765625l0 2.65625l1.296875 0l0 1.0l-1.296875 0l0 4.4375q0 0.546875 0.0625 0.71875q0.078125 0.15625 0.21875 0.25q0.15625 0.078125 0.453125 0.078125q0.203125 0 0.5625 -0.046875zm6.462616 -1.296875l1.328125 0.171875q-0.3125 1.171875 -1.171875 1.8125q-0.84375 0.640625 -2.171875 0.640625q-1.671875 0 -2.65625 -1.015625q-0.96875 -1.03125 -0.96875 -2.890625q0 -1.921875 0.984375 -2.96875q1.0 -1.0625 2.578125 -1.0625q1.515625 0 2.484375 1.03125q0.96875 1.03125 0.96875 2.921875q0 0.109375 -0.015625 0.34375l-5.65625 0q0.0625 1.25 0.703125 1.921875q0.640625 0.65625 1.59375 0.65625q0.703125 0 1.203125 -0.359375q0.5 -0.375 0.796875 -1.203125zm-4.234375 -2.078125l4.25 0q-0.09375 -0.953125 -0.484375 -1.4375q-0.625 -0.75 -1.609375 -0.75q-0.875 0 -1.484375 0.59375q-0.609375 0.59375 -0.671875 1.59375zm7.1667175 4.53125l0 -7.59375l1.15625 0l0 1.140625q0.453125 -0.796875 0.828125 -1.046875q0.375 -0.265625 0.8125 -0.265625q0.65625 0 1.328125 0.40625l-0.4375 1.203125q-0.46875 -0.28125 -0.953125 -0.28125q-0.421875 0 -0.765625 0.25q-0.328125 0.25 -0.46875 0.703125q-0.21875 0.6875 -0.21875 1.5l0 3.984375l-1.28125 0zm5.2087708 0l0 -6.59375l-1.140625 0l0 -1.0l1.140625 0l0 -0.8125q0 -0.765625 0.125 -1.140625q0.1875 -0.5 0.65625 -0.8125q0.46875 -0.3125 1.3125 -0.3125q0.546875 0 1.203125 0.125l-0.1875 1.125q-0.40625 -0.0625 -0.765625 -0.0625q-0.578125 0 -0.828125 0.25q-0.234375 0.25 -0.234375 0.9375l0 0.703125l1.46875 0l0 1.0l-1.46875 0l0 6.59375l-1.28125 0zm8.712616 -0.9375q-0.71875 0.609375 -1.375 0.859375q-0.65625 0.25 -1.421875 0.25q-1.25 0 -1.921875 -0.609375q-0.671875 -0.609375 -0.671875 -1.5625q0 -0.5625 0.25 -1.015625q0.25 -0.46875 0.65625 -0.75q0.421875 -0.28125 0.9375 -0.421875q0.375 -0.09375 1.140625 -0.1875q1.5625 -0.1875 2.296875 -0.453125q0.015625 -0.265625 0.015625 -0.328125q0 -0.796875 -0.375 -1.109375q-0.484375 -0.4375 -1.453125 -0.4375q-0.921875 0 -1.359375 0.328125q-0.421875 0.3125 -0.625 1.109375l-1.265625 -0.171875q0.171875 -0.796875 0.5625 -1.296875q0.390625 -0.5 1.140625 -0.765625q0.75 -0.265625 1.71875 -0.265625q0.984375 0 1.59375 0.234375q0.609375 0.21875 0.890625 0.5625q0.28125 0.34375 0.40625 0.875q0.0625 0.328125 0.0625 1.1875l0 1.71875q0 1.796875 0.078125 2.28125q0.078125 0.46875 0.328125 0.90625l-1.34375 0q-0.203125 -0.40625 -0.265625 -0.9375zm-0.109375 -2.875q-0.703125 0.28125 -2.09375 0.484375q-0.796875 0.109375 -1.125 0.265625q-0.328125 0.140625 -0.515625 0.421875q-0.171875 0.265625 -0.171875 0.59375q0 0.515625 0.390625 0.859375q0.390625 0.34375 1.140625 0.34375q0.734375 0 1.3125 -0.3125q0.59375 -0.328125 0.859375 -0.890625q0.203125 -0.4375 0.203125 -1.296875l0 -0.46875zm8.260468 1.03125l1.265625 0.15625q-0.203125 1.3125 -1.0625 2.0625q-0.84375 0.734375 -2.09375 0.734375q-1.5625 0 -2.515625 -1.015625q-0.9375 -1.03125 -0.9375 -2.921875q0 -1.234375 0.40625 -2.15625q0.40625 -0.921875 1.234375 -1.375q0.84375 -0.46875 1.8125 -0.46875q1.25 0 2.03125 0.625q0.78125 0.625 1.015625 1.765625l-1.265625 0.203125q-0.171875 -0.765625 -0.625 -1.15625q-0.453125 -0.390625 -1.09375 -0.390625q-0.984375 0 -1.59375 0.703125q-0.609375 0.703125 -0.609375 2.203125q0 1.53125 0.578125 2.234375q0.59375 0.6875 1.546875 0.6875q0.75 0 1.265625 -0.453125q0.515625 -0.46875 0.640625 -1.4375zm7.578125 0.328125l1.328125 0.171875q-0.3125 1.171875 -1.171875 1.8125q-0.84375 0.640625 -2.171875 0.640625q-1.671875 0 -2.65625 -1.015625q-0.96875 -1.03125 -0.96875 -2.890625q0 -1.921875 0.984375 -2.96875q1.0 -1.0625 2.578125 -1.0625q1.515625 0 2.484375 1.03125q0.96875 1.03125 0.96875 2.921875q0 0.109375 -0.015625 0.34375l-5.65625 0q0.0625 1.25 0.703125 1.921875q0.640625 0.65625 1.59375 0.65625q0.703125 0 1.203125 -0.359375q0.5 -0.375 0.796875 -1.203125zm-4.234375 -2.078125l4.25 0q-0.09375 -0.953125 -0.484375 -1.4375q-0.625 -0.75 -1.609375 -0.75q-0.875 0 -1.484375 0.59375q-0.609375 0.59375 -0.671875 1.59375z" fill-rule="nonzero"/><path fill="#000000" fill-opacity="0.0" d="m256.0 93.0l142.01575 0l0 26.015747l-142.01575 0z" fill-rule="evenodd"/><path stroke="#434343" stroke-width="2.0" stroke-linejoin="round" stroke-linecap="butt" d="m256.0 93.0l142.01575 0l0 26.015747l-142.01575 0z" fill-rule="evenodd"/><path fill="#000000" d="m272.26178 110.52788l0 -8.59375l6.203125 0l0 1.015625l-5.0625 0l0 2.625l4.75 0l0 1.015625l-4.75 0l0 2.921875l5.265625 0l0 1.015625l-6.40625 0zm10.144531 -0.9375l0.15625 0.921875q-0.453125 0.09375 -0.796875 0.09375q-0.578125 0 -0.890625 -0.171875q-0.3125 -0.1875 -0.453125 -0.484375q-0.125 -0.296875 -0.125 -1.25l0 -3.578125l-0.765625 0l0 -0.8125l0.765625 0l0 -1.546875l1.046875 -0.625l0 2.171875l1.0625 0l0 0.8125l-1.0625 0l0 3.640625q0 0.453125 0.046875 0.578125q0.0625 0.125 0.1875 0.203125q0.125 0.078125 0.359375 0.078125q0.1875 0 0.46875 -0.03125zm1.0371094 0.9375l0 -8.59375l1.046875 0l0 3.078125q0.734375 -0.84375 1.859375 -0.84375q0.703125 0 1.203125 0.28125q0.515625 0.265625 0.734375 0.75q0.21875 0.46875 0.21875 1.390625l0 3.9375l-1.046875 0l0 -3.9375q0 -0.796875 -0.34375 -1.15625q-0.34375 -0.359375 -0.96875 -0.359375q-0.46875 0 -0.890625 0.25q-0.40625 0.234375 -0.59375 0.65625q-0.171875 0.40625 -0.171875 1.140625l0 3.40625l-1.046875 0zm10.923828 -2.0l1.09375 0.125q-0.25 0.953125 -0.953125 1.484375q-0.703125 0.53125 -1.78125 0.53125q-1.359375 0 -2.171875 -0.84375q-0.796875 -0.84375 -0.796875 -2.359375q0 -1.5625 0.8125 -2.421875q0.8125 -0.875 2.09375 -0.875q1.25 0 2.03125 0.84375q0.796875 0.84375 0.796875 2.390625q0 0.09375 0 0.28125l-4.640625 0q0.0625 1.03125 0.578125 1.578125q0.515625 0.53125 1.296875 0.53125q0.578125 0 0.984375 -0.296875q0.421875 -0.3125 0.65625 -0.96875zm-3.453125 -1.703125l3.46875 0q-0.0625 -0.796875 -0.390625 -1.1875q-0.515625 -0.609375 -1.3125 -0.609375q-0.734375 0 -1.234375 0.484375q-0.484375 0.484375 -0.53125 1.3125zm5.861328 3.703125l0 -6.21875l0.953125 0l0 0.9375q0.359375 -0.65625 0.65625 -0.859375q0.3125 -0.21875 0.6875 -0.21875q0.53125 0 1.078125 0.328125l-0.359375 0.984375q-0.390625 -0.234375 -0.765625 -0.234375q-0.359375 0 -0.640625 0.21875q-0.265625 0.203125 -0.375 0.578125q-0.1875 0.5625 -0.1875 1.21875l0 3.265625l-1.046875 0zm4.0117188 0l0 -6.21875l0.9375 0l0 0.875q0.6875 -1.015625 1.984375 -1.015625q0.5625 0 1.03125 0.203125q0.484375 0.203125 0.71875 0.53125q0.234375 0.328125 0.328125 0.765625q0.046875 0.296875 0.046875 1.03125l0 3.828125l-1.046875 0l0 -3.78125q0 -0.65625 -0.125 -0.96875q-0.125 -0.3125 -0.4375 -0.5q-0.3125 -0.203125 -0.734375 -0.203125q-0.671875 0 -1.171875 0.4375q-0.484375 0.421875 -0.484375 1.609375l0 3.40625l-1.046875 0zm10.923828 -2.0l1.09375 0.125q-0.25 0.953125 -0.953125 1.484375q-0.703125 0.53125 -1.78125 0.53125q-1.359375 0 -2.171875 -0.84375q-0.796875 -0.84375 -0.796875 -2.359375q0 -1.5625 0.8125 -2.421875q0.8125 -0.875 2.09375 -0.875q1.25 0 2.03125 0.84375q0.796875 0.84375 0.796875 2.390625q0 0.09375 0 0.28125l-4.640625 0q0.0625 1.03125 0.578125 1.578125q0.515625 0.53125 1.296875 0.53125q0.578125 0 0.984375 -0.296875q0.421875 -0.3125 0.65625 -0.96875zm-3.453125 -1.703125l3.46875 0q-0.0625 -0.796875 -0.390625 -1.1875q-0.515625 -0.609375 -1.3125 -0.609375q-0.734375 0 -1.234375 0.484375q-0.484375 0.484375 -0.53125 1.3125zm8.173828 2.765625l0.15625 0.921875q-0.453125 0.09375 -0.796875 0.09375q-0.578125 0 -0.890625 -0.171875q-0.3125 -0.1875 -0.453125 -0.484375q-0.125 -0.296875 -0.125 -1.25l0 -3.578125l-0.765625 0l0 -0.8125l0.765625 0l0 -1.546875l1.046875 -0.625l0 2.171875l1.0625 0l0 0.8125l-1.0625 0l0 3.640625q0 0.453125 0.046875 0.578125q0.0625 0.125 0.1875 0.203125q0.125 0.078125 0.359375 0.078125q0.1875 0 0.46875 -0.03125zm1.1933594 0.9375l0 -8.59375l6.203125 0l0 1.015625l-5.0625 0l0 2.625l4.75 0l0 1.015625l-4.75 0l0 2.921875l5.265625 0l0 1.015625l-6.40625 0zm11.910156 -0.765625q-0.59375 0.5 -1.140625 0.703125q-0.53125 0.203125 -1.15625 0.203125q-1.03125 0 -1.578125 -0.5q-0.546875 -0.5 -0.546875 -1.28125q0 -0.453125 0.203125 -0.828125q0.203125 -0.390625 0.546875 -0.609375q0.34375 -0.234375 0.765625 -0.34375q0.296875 -0.09375 0.9375 -0.171875q1.265625 -0.140625 1.875 -0.359375q0 -0.21875 0 -0.265625q0 -0.65625 -0.296875 -0.921875q-0.40625 -0.34375 -1.203125 -0.34375q-0.734375 0 -1.09375 0.265625q-0.359375 0.25 -0.53125 0.90625l-1.03125 -0.140625q0.140625 -0.65625 0.46875 -1.0625q0.328125 -0.40625 0.9375 -0.625q0.609375 -0.21875 1.40625 -0.21875q0.796875 0 1.296875 0.1875q0.5 0.1875 0.734375 0.46875q0.234375 0.28125 0.328125 0.71875q0.046875 0.265625 0.046875 0.96875l0 1.40625q0 1.46875 0.0625 1.859375q0.078125 0.390625 0.28125 0.75l-1.109375 0q-0.15625 -0.328125 -0.203125 -0.765625zm-0.09375 -2.359375q-0.578125 0.234375 -1.71875 0.40625q-0.65625 0.09375 -0.921875 0.21875q-0.265625 0.109375 -0.421875 0.328125q-0.140625 0.21875 -0.140625 0.5q0 0.421875 0.3125 0.703125q0.328125 0.28125 0.9375 0.28125q0.609375 0 1.078125 -0.265625q0.484375 -0.265625 0.703125 -0.734375q0.171875 -0.359375 0.171875 -1.046875l0 -0.390625zm2.7050781 5.515625l0 -8.609375l0.953125 0l0 0.796875q0.34375 -0.46875 0.765625 -0.703125q0.4375 -0.234375 1.046875 -0.234375q0.796875 0 1.40625 0.40625q0.609375 0.40625 0.90625 1.15625q0.3125 0.75 0.3125 1.640625q0 0.953125 -0.34375 1.71875q-0.328125 0.765625 -0.984375 1.171875q-0.65625 0.40625 -1.375 0.40625q-0.53125 0 -0.953125 -0.21875q-0.421875 -0.234375 -0.6875 -0.5625l0 3.03125l-1.046875 0zm0.953125 -5.46875q0 1.203125 0.484375 1.78125q0.484375 0.5625 1.171875 0.5625q0.703125 0 1.203125 -0.59375q0.5 -0.59375 0.5 -1.84375q0 -1.1875 -0.484375 -1.765625q-0.484375 -0.59375 -1.171875 -0.59375q-0.671875 0 -1.1875 0.625q-0.515625 0.625 -0.515625 1.828125zm5.845703 3.078125l0 -8.59375l3.25 0q0.84375 0 1.296875 0.078125q0.640625 0.109375 1.0625 0.40625q0.4375 0.296875 0.6875 0.828125q0.265625 0.53125 0.265625 1.171875q0 1.09375 -0.703125 1.859375q-0.6875 0.75 -2.515625 0.75l-2.203125 0l0 3.5l-1.140625 0zm1.140625 -4.5l2.21875 0q1.109375 0 1.5625 -0.40625q0.46875 -0.421875 0.46875 -1.171875q0 -0.53125 -0.28125 -0.90625q-0.265625 -0.390625 -0.703125 -0.515625q-0.296875 -0.078125 -1.0625 -0.078125l-2.203125 0l0 3.078125zm6.7226562 4.5l0 -6.21875l0.953125 0l0 0.9375q0.359375 -0.65625 0.65625 -0.859375q0.3125 -0.21875 0.6875 -0.21875q0.53125 0 1.078125 0.328125l-0.359375 0.984375q-0.390625 -0.234375 -0.765625 -0.234375q-0.359375 0 -0.640625 0.21875q-0.265625 0.203125 -0.375 0.578125q-0.1875 0.5625 -0.1875 1.21875l0 3.265625l-1.046875 0zm3.6210938 -3.109375q0 -1.734375 0.953125 -2.5625q0.796875 -0.6875 1.953125 -0.6875q1.28125 0 2.09375 0.84375q0.828125 0.828125 0.828125 2.3125q0 1.203125 -0.359375 1.890625q-0.359375 0.6875 -1.0625 1.078125q-0.6875 0.375 -1.5 0.375q-1.296875 0 -2.109375 -0.828125q-0.796875 -0.84375 -0.796875 -2.421875zm1.078125 0q0 1.1875 0.515625 1.78125q0.53125 0.59375 1.3125 0.59375q0.796875 0 1.3125 -0.59375q0.515625 -0.59375 0.515625 -1.8125q0 -1.15625 -0.53125 -1.75q-0.515625 -0.59375 -1.296875 -0.59375q-0.78125 0 -1.3125 0.59375q-0.515625 0.578125 -0.515625 1.78125zm7.705078 3.109375l-2.359375 -6.21875l1.109375 0l1.34375 3.71875q0.203125 0.609375 0.390625 1.25q0.140625 -0.484375 0.390625 -1.171875l1.390625 -3.796875l1.078125 0l-2.359375 6.21875l-0.984375 0zm4.28125 -7.375l0 -1.21875l1.0625 0l0 1.21875l-1.0625 0zm0 7.375l0 -6.21875l1.0625 0l0 6.21875l-1.0625 0zm6.6972656 0l0 -0.78125q-0.59375 0.921875 -1.734375 0.921875q-0.75 0 -1.375 -0.40625q-0.625 -0.421875 -0.96875 -1.15625q-0.34375 -0.734375 -0.34375 -1.6875q0 -0.921875 0.3125 -1.6875q0.3125 -0.765625 0.9375 -1.15625q0.625 -0.40625 1.390625 -0.40625q0.5625 0 1.0 0.234375q0.4375 0.234375 0.71875 0.609375l0 -3.078125l1.046875 0l0 8.59375l-0.984375 0zm-3.328125 -3.109375q0 1.203125 0.5 1.796875q0.5 0.578125 1.1875 0.578125q0.6875 0 1.171875 -0.5625q0.484375 -0.5625 0.484375 -1.71875q0 -1.28125 -0.5 -1.875q-0.484375 -0.59375 -1.203125 -0.59375q-0.703125 0 -1.171875 0.578125q-0.46875 0.5625 -0.46875 1.796875zm10.220703 1.109375l1.09375 0.125q-0.25 0.953125 -0.953125 1.484375q-0.703125 0.53125 -1.78125 0.53125q-1.359375 0 -2.171875 -0.84375q-0.796875 -0.84375 -0.796875 -2.359375q0 -1.5625 0.8125 -2.421875q0.8125 -0.875 2.09375 -0.875q1.25 0 2.03125 0.84375q0.796875 0.84375 0.796875 2.390625q0 0.09375 0 0.28125l-4.640625 0q0.0625 1.03125 0.578125 1.578125q0.515625 0.53125 1.296875 0.53125q0.578125 0 0.984375 -0.296875q0.421875 -0.3125 0.65625 -0.96875zm-3.453125 -1.703125l3.46875 0q-0.0625 -0.796875 -0.390625 -1.1875q-0.515625 -0.609375 -1.3125 -0.609375q-0.734375 0 -1.234375 0.484375q-0.484375 0.484375 -0.53125 1.3125zm5.861328 3.703125l0 -6.21875l0.953125 0l0 0.9375q0.359375 -0.65625 0.65625 -0.859375q0.3125 -0.21875 0.6875 -0.21875q0.53125 0 1.078125 0.328125l-0.359375 0.984375q-0.390625 -0.234375 -0.765625 -0.234375q-0.359375 0 -0.640625 0.21875q-0.265625 0.203125 -0.375 0.578125q-0.1875 0.5625 -0.1875 1.21875l0 3.265625l-1.046875 0z" fill-rule="nonzero"/><path fill="#000000" fill-opacity="0.0" d="m405.0 93.0l133.51184 0l0 26.015747l-133.51184 0z" fill-rule="evenodd"/><path stroke="#434343" stroke-width="2.0" stroke-linejoin="round" stroke-linecap="butt" d="m405.0 93.0l133.51184 0l0 26.015747l-133.51184 0z" fill-rule="evenodd"/><path fill="#000000" d="m427.6856 110.52788l0 -8.59375l6.203125 0l0 1.015625l-5.0625 0l0 2.625l4.75 0l0 1.015625l-4.75 0l0 2.921875l5.265625 0l0 1.015625l-6.40625 0zm10.144531 -0.9375l0.15625 0.921875q-0.453125 0.09375 -0.796875 0.09375q-0.578125 0 -0.890625 -0.171875q-0.3125 -0.1875 -0.453125 -0.484375q-0.125 -0.296875 -0.125 -1.25l0 -3.578125l-0.765625 0l0 -0.8125l0.765625 0l0 -1.546875l1.046875 -0.625l0 2.171875l1.0625 0l0 0.8125l-1.0625 0l0 3.640625q0 0.453125 0.046875 0.578125q0.0625 0.125 0.1875 0.203125q0.125 0.078125 0.359375 0.078125q0.1875 0 0.46875 -0.03125zm1.0371094 0.9375l0 -8.59375l1.046875 0l0 3.078125q0.734375 -0.84375 1.859375 -0.84375q0.703125 0 1.203125 0.28125q0.515625 0.265625 0.734375 0.75q0.21875 0.46875 0.21875 1.390625l0 3.9375l-1.046875 0l0 -3.9375q0 -0.796875 -0.34375 -1.15625q-0.34375 -0.359375 -0.96875 -0.359375q-0.46875 0 -0.890625 0.25q-0.40625 0.234375 -0.59375 0.65625q-0.171875 0.40625 -0.171875 1.140625l0 3.40625l-1.046875 0zm10.923828 -2.0l1.09375 0.125q-0.25 0.953125 -0.953125 1.484375q-0.703125 0.53125 -1.78125 0.53125q-1.359375 0 -2.171875 -0.84375q-0.796875 -0.84375 -0.796875 -2.359375q0 -1.5625 0.8125 -2.421875q0.8125 -0.875 2.09375 -0.875q1.25 0 2.03125 0.84375q0.796875 0.84375 0.796875 2.390625q0 0.09375 0 0.28125l-4.640625 0q0.0625 1.03125 0.578125 1.578125q0.515625 0.53125 1.296875 0.53125q0.578125 0 0.984375 -0.296875q0.421875 -0.3125 0.65625 -0.96875zm-3.453125 -1.703125l3.46875 0q-0.0625 -0.796875 -0.390625 -1.1875q-0.515625 -0.609375 -1.3125 -0.609375q-0.734375 0 -1.234375 0.484375q-0.484375 0.484375 -0.53125 1.3125zm5.861328 3.703125l0 -6.21875l0.953125 0l0 0.9375q0.359375 -0.65625 0.65625 -0.859375q0.3125 -0.21875 0.6875 -0.21875q0.53125 0 1.078125 0.328125l-0.359375 0.984375q-0.390625 -0.234375 -0.765625 -0.234375q-0.359375 0 -0.640625 0.21875q-0.265625 0.203125 -0.375 0.578125q-0.1875 0.5625 -0.1875 1.21875l0 3.265625l-1.046875 0zm4.0117188 0l0 -6.21875l0.9375 0l0 0.875q0.6875 -1.015625 1.984375 -1.015625q0.5625 0 1.03125 0.203125q0.484375 0.203125 0.71875 0.53125q0.234375 0.328125 0.328125 0.765625q0.046875 0.296875 0.046875 1.03125l0 3.828125l-1.046875 0l0 -3.78125q0 -0.65625 -0.125 -0.96875q-0.125 -0.3125 -0.4375 -0.5q-0.3125 -0.203125 -0.734375 -0.203125q-0.671875 0 -1.171875 0.4375q-0.484375 0.421875 -0.484375 1.609375l0 3.40625l-1.046875 0zm10.923828 -2.0l1.09375 0.125q-0.25 0.953125 -0.953125 1.484375q-0.703125 0.53125 -1.78125 0.53125q-1.359375 0 -2.171875 -0.84375q-0.796875 -0.84375 -0.796875 -2.359375q0 -1.5625 0.8125 -2.421875q0.8125 -0.875 2.09375 -0.875q1.25 0 2.03125 0.84375q0.796875 0.84375 0.796875 2.390625q0 0.09375 0 0.28125l-4.640625 0q0.0625 1.03125 0.578125 1.578125q0.515625 0.53125 1.296875 0.53125q0.578125 0 0.984375 -0.296875q0.421875 -0.3125 0.65625 -0.96875zm-3.453125 -1.703125l3.46875 0q-0.0625 -0.796875 -0.390625 -1.1875q-0.515625 -0.609375 -1.3125 -0.609375q-0.734375 0 -1.234375 0.484375q-0.484375 0.484375 -0.53125 1.3125zm8.173828 2.765625l0.15625 0.921875q-0.453125 0.09375 -0.796875 0.09375q-0.578125 0 -0.890625 -0.171875q-0.3125 -0.1875 -0.453125 -0.484375q-0.125 -0.296875 -0.125 -1.25l0 -3.578125l-0.765625 0l0 -0.8125l0.765625 0l0 -1.546875l1.046875 -0.625l0 2.171875l1.0625 0l0 0.8125l-1.0625 0l0 3.640625q0 0.453125 0.046875 0.578125q0.0625 0.125 0.1875 0.203125q0.125 0.078125 0.359375 0.078125q0.1875 0 0.46875 -0.03125zm1.1621094 0.9375l0 -8.59375l3.25 0q0.84375 0 1.296875 0.078125q0.640625 0.109375 1.0625 0.40625q0.4375 0.296875 0.6875 0.828125q0.265625 0.53125 0.265625 1.171875q0 1.09375 -0.703125 1.859375q-0.6875 0.75 -2.515625 0.75l-2.203125 0l0 3.5l-1.140625 0zm1.140625 -4.5l2.21875 0q1.109375 0 1.5625 -0.40625q0.46875 -0.421875 0.46875 -1.171875q0 -0.53125 -0.28125 -0.90625q-0.265625 -0.390625 -0.703125 -0.515625q-0.296875 -0.078125 -1.0625 -0.078125l-2.203125 0l0 3.078125zm6.7226562 4.5l0 -6.21875l0.953125 0l0 0.9375q0.359375 -0.65625 0.65625 -0.859375q0.3125 -0.21875 0.6875 -0.21875q0.53125 0 1.078125 0.328125l-0.359375 0.984375q-0.390625 -0.234375 -0.765625 -0.234375q-0.359375 0 -0.640625 0.21875q-0.265625 0.203125 -0.375 0.578125q-0.1875 0.5625 -0.1875 1.21875l0 3.265625l-1.046875 0zm3.6210938 -3.109375q0 -1.734375 0.953125 -2.5625q0.796875 -0.6875 1.953125 -0.6875q1.28125 0 2.09375 0.84375q0.828125 0.828125 0.828125 2.3125q0 1.203125 -0.359375 1.890625q-0.359375 0.6875 -1.0625 1.078125q-0.6875 0.375 -1.5 0.375q-1.296875 0 -2.109375 -0.828125q-0.796875 -0.84375 -0.796875 -2.421875zm1.078125 0q0 1.1875 0.515625 1.78125q0.53125 0.59375 1.3125 0.59375q0.796875 0 1.3125 -0.59375q0.515625 -0.59375 0.515625 -1.8125q0 -1.15625 -0.53125 -1.75q-0.515625 -0.59375 -1.296875 -0.59375q-0.78125 0 -1.3125 0.59375q-0.515625 0.578125 -0.515625 1.78125zm7.705078 3.109375l-2.359375 -6.21875l1.109375 0l1.34375 3.71875q0.203125 0.609375 0.390625 1.25q0.140625 -0.484375 0.390625 -1.171875l1.390625 -3.796875l1.078125 0l-2.359375 6.21875l-0.984375 0zm4.28125 -7.375l0 -1.21875l1.0625 0l0 1.21875l-1.0625 0zm0 7.375l0 -6.21875l1.0625 0l0 6.21875l-1.0625 0zm6.6972656 0l0 -0.78125q-0.59375 0.921875 -1.734375 0.921875q-0.75 0 -1.375 -0.40625q-0.625 -0.421875 -0.96875 -1.15625q-0.34375 -0.734375 -0.34375 -1.6875q0 -0.921875 0.3125 -1.6875q0.3125 -0.765625 0.9375 -1.15625q0.625 -0.40625 1.390625 -0.40625q0.5625 0 1.0 0.234375q0.4375 0.234375 0.71875 0.609375l0 -3.078125l1.046875 0l0 8.59375l-0.984375 0zm-3.328125 -3.109375q0 1.203125 0.5 1.796875q0.5 0.578125 1.1875 0.578125q0.6875 0 1.171875 -0.5625q0.484375 -0.5625 0.484375 -1.71875q0 -1.28125 -0.5 -1.875q-0.484375 -0.59375 -1.203125 -0.59375q-0.703125 0 -1.171875 0.578125q-0.46875 0.5625 -0.46875 1.796875zm10.220703 1.109375l1.09375 0.125q-0.25 0.953125 -0.953125 1.484375q-0.703125 0.53125 -1.78125 0.53125q-1.359375 0 -2.171875 -0.84375q-0.796875 -0.84375 -0.796875 -2.359375q0 -1.5625 0.8125 -2.421875q0.8125 -0.875 2.09375 -0.875q1.25 0 2.03125 0.84375q0.796875 0.84375 0.796875 2.390625q0 0.09375 0 0.28125l-4.640625 0q0.0625 1.03125 0.578125 1.578125q0.515625 0.53125 1.296875 0.53125q0.578125 0 0.984375 -0.296875q0.421875 -0.3125 0.65625 -0.96875zm-3.453125 -1.703125l3.46875 0q-0.0625 -0.796875 -0.390625 -1.1875q-0.515625 -0.609375 -1.3125 -0.609375q-0.734375 0 -1.234375 0.484375q-0.484375 0.484375 -0.53125 1.3125zm5.861328 3.703125l0 -6.21875l0.953125 0l0 0.9375q0.359375 -0.65625 0.65625 -0.859375q0.3125 -0.21875 0.6875 -0.21875q0.53125 0 1.078125 0.328125l-0.359375 0.984375q-0.390625 -0.234375 -0.765625 -0.234375q-0.359375 0 -0.640625 0.21875q-0.265625 0.203125 -0.375 0.578125q-0.1875 0.5625 -0.1875 1.21875l0 3.265625l-1.046875 0z" fill-rule="nonzero"/><path fill="#000000" fill-opacity="0.0" d="m545.49603 93.0l105.98425 0l0 26.015747l-105.98425 0z" fill-rule="evenodd"/><path stroke="#434343" stroke-width="2.0" stroke-linejoin="round" stroke-linecap="butt" d="m545.49603 93.0l105.98425 0l0 26.015747l-105.98425 0z" fill-rule="evenodd"/><path fill="#000000" d="m567.18445 110.52788l-3.328125 -8.59375l1.234375 0l2.234375 6.25q0.265625 0.75 0.453125 1.40625q0.203125 -0.703125 0.46875 -1.40625l2.3125 -6.25l1.15625 0l-3.359375 8.59375l-1.171875 0zm5.5507812 0l0 -8.59375l3.25 0q0.84375 0 1.296875 0.078125q0.640625 0.109375 1.0625 0.40625q0.4375 0.296875 0.6875 0.828125q0.265625 0.53125 0.265625 1.171875q0 1.09375 -0.703125 1.859375q-0.6875 0.75 -2.515625 0.75l-2.203125 0l0 3.5l-1.140625 0zm1.140625 -4.5l2.21875 0q1.109375 0 1.5625 -0.40625q0.46875 -0.421875 0.46875 -1.171875q0 -0.53125 -0.28125 -0.90625q-0.265625 -0.390625 -0.703125 -0.515625q-0.296875 -0.078125 -1.0625 -0.078125l-2.203125 0l0 3.078125zm6.8632812 4.5l0 -8.59375l1.15625 0l4.515625 6.75l0 -6.75l1.09375 0l0 8.59375l-1.171875 0l-4.515625 -6.75l0 6.75l-1.078125 0zm8.666016 0l0 -8.59375l3.25 0q0.84375 0 1.296875 0.078125q0.640625 0.109375 1.0625 0.40625q0.4375 0.296875 0.6875 0.828125q0.265625 0.53125 0.265625 1.171875q0 1.09375 -0.703125 1.859375q-0.6875 0.75 -2.515625 0.75l-2.203125 0l0 3.5l-1.140625 0zm1.140625 -4.5l2.21875 0q1.109375 0 1.5625 -0.40625q0.46875 -0.421875 0.46875 -1.171875q0 -0.53125 -0.28125 -0.90625q-0.265625 -0.390625 -0.703125 -0.515625q-0.296875 -0.078125 -1.0625 -0.078125l-2.203125 0l0 3.078125zm6.7226562 4.5l0 -6.21875l0.953125 0l0 0.9375q0.359375 -0.65625 0.65625 -0.859375q0.3125 -0.21875 0.6875 -0.21875q0.53125 0 1.078125 0.328125l-0.359375 0.984375q-0.390625 -0.234375 -0.765625 -0.234375q-0.359375 0 -0.640625 0.21875q-0.265625 0.203125 -0.375 0.578125q-0.1875 0.5625 -0.1875 1.21875l0 3.265625l-1.046875 0zm3.6210938 -3.109375q0 -1.734375 0.953125 -2.5625q0.796875 -0.6875 1.953125 -0.6875q1.28125 0 2.09375 0.84375q0.828125 0.828125 0.828125 2.3125q0 1.203125 -0.359375 1.890625q-0.359375 0.6875 -1.0625 1.078125q-0.6875 0.375 -1.5 0.375q-1.296875 0 -2.109375 -0.828125q-0.796875 -0.84375 -0.796875 -2.421875zm1.078125 0q0 1.1875 0.515625 1.78125q0.53125 0.59375 1.3125 0.59375q0.796875 0 1.3125 -0.59375q0.515625 -0.59375 0.515625 -1.8125q0 -1.15625 -0.53125 -1.75q-0.515625 -0.59375 -1.296875 -0.59375q-0.78125 0 -1.3125 0.59375q-0.515625 0.578125 -0.515625 1.78125zm7.705078 3.109375l-2.359375 -6.21875l1.109375 0l1.34375 3.71875q0.203125 0.609375 0.390625 1.25q0.140625 -0.484375 0.390625 -1.171875l1.390625 -3.796875l1.078125 0l-2.359375 6.21875l-0.984375 0zm4.28125 -7.375l0 -1.21875l1.0625 0l0 1.21875l-1.0625 0zm0 7.375l0 -6.21875l1.0625 0l0 6.21875l-1.0625 0zm6.6972656 0l0 -0.78125q-0.59375 0.921875 -1.734375 0.921875q-0.75 0 -1.375 -0.40625q-0.625 -0.421875 -0.96875 -1.15625q-0.34375 -0.734375 -0.34375 -1.6875q0 -0.921875 0.3125 -1.6875q0.3125 -0.765625 0.9375 -1.15625q0.625 -0.40625 1.390625 -0.40625q0.5625 0 1.0 0.234375q0.4375 0.234375 0.71875 0.609375l0 -3.078125l1.046875 0l0 8.59375l-0.984375 0zm-3.328125 -3.109375q0 1.203125 0.5 1.796875q0.5 0.578125 1.1875 0.578125q0.6875 0 1.171875 -0.5625q0.484375 -0.5625 0.484375 -1.71875q0 -1.28125 -0.5 -1.875q-0.484375 -0.59375 -1.203125 -0.59375q-0.703125 0 -1.171875 0.578125q-0.46875 0.5625 -0.46875 1.796875zm10.220703 1.109375l1.09375 0.125q-0.25 0.953125 -0.953125 1.484375q-0.703125 0.53125 -1.78125 0.53125q-1.359375 0 -2.171875 -0.84375q-0.796875 -0.84375 -0.796875 -2.359375q0 -1.5625 0.8125 -2.421875q0.8125 -0.875 2.09375 -0.875q1.25 0 2.03125 0.84375q0.796875 0.84375 0.796875 2.390625q0 0.09375 0 0.28125l-4.640625 0q0.0625 1.03125 0.578125 1.578125q0.515625 0.53125 1.296875 0.53125q0.578125 0 0.984375 -0.296875q0.421875 -0.3125 0.65625 -0.96875zm-3.453125 -1.703125l3.46875 0q-0.0625 -0.796875 -0.390625 -1.1875q-0.515625 -0.609375 -1.3125 -0.609375q-0.734375 0 -1.234375 0.484375q-0.484375 0.484375 -0.53125 1.3125zm5.861328 3.703125l0 -6.21875l0.953125 0l0 0.9375q0.359375 -0.65625 0.65625 -0.859375q0.3125 -0.21875 0.6875 -0.21875q0.53125 0 1.078125 0.328125l-0.359375 0.984375q-0.390625 -0.234375 -0.765625 -0.234375q-0.359375 0 -0.640625 0.21875q-0.265625 0.203125 -0.375 0.578125q-0.1875 0.5625 -0.1875 1.21875l0 3.265625l-1.046875 0z" fill-rule="nonzero"/><path fill="#000000" fill-opacity="0.0" d="m658.46454 93.0l105.98425 0l0 26.015747l-105.98425 0z" fill-rule="evenodd"/><path stroke="#434343" stroke-width="2.0" stroke-linejoin="round" stroke-linecap="butt" d="m658.46454 93.0l105.98425 0l0 26.015747l-105.98425 0z" fill-rule="evenodd"/><path fill="#000000" d="m679.5426 110.52788l-2.28125 -8.59375l1.171875 0l1.3125 5.640625q0.203125 0.875 0.359375 1.75q0.328125 -1.375 0.390625 -1.59375l1.625 -5.796875l1.375 0l1.234375 4.34375q0.453125 1.625 0.671875 3.046875q0.15625 -0.8125 0.421875 -1.875l1.34375 -5.515625l1.140625 0l-2.34375 8.59375l-1.109375 0l-1.796875 -6.546875q-0.234375 -0.8125 -0.28125 -1.0q-0.125 0.578125 -0.25 1.0l-1.8125 6.546875l-1.171875 0zm9.701172 -7.375l0 -1.21875l1.0625 0l0 1.21875l-1.0625 0zm0 7.375l0 -6.21875l1.0625 0l0 6.21875l-1.0625 0zm2.8535156 0l0 -8.59375l5.796875 0l0 1.015625l-4.65625 0l0 2.65625l4.03125 0l0 1.015625l-4.03125 0l0 3.90625l-1.140625 0zm7.142578 -7.375l0 -1.21875l1.0625 0l0 1.21875l-1.0625 0zm0 7.375l0 -6.21875l1.0625 0l0 6.21875l-1.0625 0zm2.7910156 0l0 -8.59375l3.25 0q0.84375 0 1.296875 0.078125q0.640625 0.109375 1.0625 0.40625q0.4375 0.296875 0.6875 0.828125q0.265625 0.53125 0.265625 1.171875q0 1.09375 -0.703125 1.859375q-0.6875 0.75 -2.515625 0.75l-2.203125 0l0 3.5l-1.140625 0zm1.140625 -4.5l2.21875 0q1.109375 0 1.5625 -0.40625q0.46875 -0.421875 0.46875 -1.171875q0 -0.53125 -0.28125 -0.90625q-0.265625 -0.390625 -0.703125 -0.515625q-0.296875 -0.078125 -1.0625 -0.078125l-2.203125 0l0 3.078125zm6.7226562 4.5l0 -6.21875l0.953125 0l0 0.9375q0.359375 -0.65625 0.65625 -0.859375q0.3125 -0.21875 0.6875 -0.21875q0.53125 0 1.078125 0.328125l-0.359375 0.984375q-0.390625 -0.234375 -0.765625 -0.234375q-0.359375 0 -0.640625 0.21875q-0.265625 0.203125 -0.375 0.578125q-0.1875 0.5625 -0.1875 1.21875l0 3.265625l-1.046875 0zm3.6210938 -3.109375q0 -1.734375 0.953125 -2.5625q0.796875 -0.6875 1.953125 -0.6875q1.28125 0 2.09375 0.84375q0.828125 0.828125 0.828125 2.3125q0 1.203125 -0.359375 1.890625q-0.359375 0.6875 -1.0625 1.078125q-0.6875 0.375 -1.5 0.375q-1.296875 0 -2.109375 -0.828125q-0.796875 -0.84375 -0.796875 -2.421875zm1.078125 0q0 1.1875 0.515625 1.78125q0.53125 0.59375 1.3125 0.59375q0.796875 0 1.3125 -0.59375q0.515625 -0.59375 0.515625 -1.8125q0 -1.15625 -0.53125 -1.75q-0.515625 -0.59375 -1.296875 -0.59375q-0.78125 0 -1.3125 0.59375q-0.515625 0.578125 -0.515625 1.78125zm7.705078 3.109375l-2.359375 -6.21875l1.109375 0l1.34375 3.71875q0.203125 0.609375 0.390625 1.25q0.140625 -0.484375 0.390625 -1.171875l1.390625 -3.796875l1.078125 0l-2.359375 6.21875l-0.984375 0zm4.28125 -7.375l0 -1.21875l1.0625 0l0 1.21875l-1.0625 0zm0 7.375l0 -6.21875l1.0625 0l0 6.21875l-1.0625 0zm6.6972656 0l0 -0.78125q-0.59375 0.921875 -1.734375 0.921875q-0.75 0 -1.375 -0.40625q-0.625 -0.421875 -0.96875 -1.15625q-0.34375 -0.734375 -0.34375 -1.6875q0 -0.921875 0.3125 -1.6875q0.3125 -0.765625 0.9375 -1.15625q0.625 -0.40625 1.390625 -0.40625q0.5625 0 1.0 0.234375q0.4375 0.234375 0.71875 0.609375l0 -3.078125l1.046875 0l0 8.59375l-0.984375 0zm-3.328125 -3.109375q0 1.203125 0.5 1.796875q0.5 0.578125 1.1875 0.578125q0.6875 0 1.171875 -0.5625q0.484375 -0.5625 0.484375 -1.71875q0 -1.28125 -0.5 -1.875q-0.484375 -0.59375 -1.203125 -0.59375q-0.703125 0 -1.171875 0.578125q-0.46875 0.5625 -0.46875 1.796875zm10.220703 1.109375l1.09375 0.125q-0.25 0.953125 -0.953125 1.484375q-0.703125 0.53125 -1.78125 0.53125q-1.359375 0 -2.171875 -0.84375q-0.796875 -0.84375 -0.796875 -2.359375q0 -1.5625 0.8125 -2.421875q0.8125 -0.875 2.09375 -0.875q1.25 0 2.03125 0.84375q0.796875 0.84375 0.796875 2.390625q0 0.09375 0 0.28125l-4.640625 0q0.0625 1.03125 0.578125 1.578125q0.515625 0.53125 1.296875 0.53125q0.578125 0 0.984375 -0.296875q0.421875 -0.3125 0.65625 -0.96875zm-3.453125 -1.703125l3.46875 0q-0.0625 -0.796875 -0.390625 -1.1875q-0.515625 -0.609375 -1.3125 -0.609375q-0.734375 0 -1.234375 0.484375q-0.484375 0.484375 -0.53125 1.3125zm5.861328 3.703125l0 -6.21875l0.953125 0l0 0.9375q0.359375 -0.65625 0.65625 -0.859375q0.3125 -0.21875 0.6875 -0.21875q0.53125 0 1.078125 0.328125l-0.359375 0.984375q-0.390625 -0.234375 -0.765625 -0.234375q-0.359375 0 -0.640625 0.21875q-0.265625 0.203125 -0.375 0.578125q-0.1875 0.5625 -0.1875 1.21875l0 3.265625l-1.046875 0z" fill-rule="nonzero"/><path fill="#000000" fill-opacity="0.0" d="m327.00787 93.0l77.480316 -45.007874" fill-rule="evenodd"/><path stroke="#351c75" stroke-width="1.0" stroke-linejoin="round" stroke-linecap="butt" d="m327.00787 93.0l72.292145 -41.994095" fill-rule="evenodd"/><path fill="#351c75" stroke="#351c75" stroke-width="1.0" stroke-linecap="butt" d="m400.12967 52.43415l3.0944214 -3.707718l-4.753723 0.8512268z" fill-rule="evenodd"/><path fill="#000000" fill-opacity="0.0" d="m471.75592 93.0l-43.496063 -46.015747" fill-rule="evenodd"/><path stroke="#351c75" stroke-width="1.0" stroke-linejoin="round" stroke-linecap="butt" d="m471.75592 93.0l-39.37448 -41.65541" fill-rule="evenodd"/><path fill="#351c75" stroke="#351c75" stroke-width="1.0" stroke-linecap="butt" d="m433.5818 50.20997l-4.3177185 -2.1633186l1.9169922 4.4325676z" fill-rule="evenodd"/><path fill="#000000" fill-opacity="0.0" d="m598.48816 93.0l-143.49603 -45.51181" fill-rule="evenodd"/><path stroke="#351c75" stroke-width="1.0" stroke-linejoin="round" stroke-linecap="butt" d="m598.48816 93.0l-137.7768 -43.697876" fill-rule="evenodd"/><path fill="#351c75" stroke="#351c75" stroke-width="1.0" stroke-linecap="butt" d="m461.21072 47.727684l-4.8251038 0.20247269l3.8263855 2.9464073z" fill-rule="evenodd"/><path fill="#000000" fill-opacity="0.0" d="m711.45667 93.0l-230.45667 -44.503937" fill-rule="evenodd"/><path stroke="#351c75" stroke-width="1.0" stroke-linejoin="round" stroke-linecap="butt" d="m711.45667 93.0l-224.56552 -43.366283" fill-rule="evenodd"/><path fill="#351c75" stroke="#351c75" stroke-width="1.0" stroke-linecap="butt" d="m487.20435 48.011948l-4.7689514 0.76130676l4.142578 2.4822311z" fill-rule="evenodd"/><path fill="#000000" fill-opacity="0.0" d="m91.0 93.0l158.01575 0l0 26.015747l-158.01575 0z" fill-rule="evenodd"/><path stroke="#434343" stroke-width="2.0" stroke-linejoin="round" stroke-linecap="butt" d="m91.0 93.0l158.01575 0l0 26.015747l-158.01575 0z" fill-rule="evenodd"/><path fill="#000000" d="m114.38092 107.51225l1.125 0.296875q-0.359375 1.390625 -1.28125 2.125q-0.921875 0.734375 -2.265625 0.734375q-1.390625 0 -2.265625 -0.5625q-0.875 -0.5625 -1.328125 -1.625q-0.453125 -1.078125 -0.453125 -2.3125q0 -1.34375 0.515625 -2.34375q0.515625 -1.0 1.453125 -1.515625q0.953125 -0.515625 2.09375 -0.515625q1.28125 0 2.15625 0.65625q0.890625 0.65625 1.234375 1.84375l-1.125 0.265625q-0.296875 -0.9375 -0.875 -1.359375q-0.5625 -0.4375 -1.421875 -0.4375q-0.984375 0 -1.65625 0.484375q-0.65625 0.46875 -0.9375 1.265625q-0.265625 0.796875 -0.265625 1.65625q0 1.09375 0.3125 1.90625q0.328125 0.8125 1.0 1.21875q0.671875 0.40625 1.46875 0.40625q0.953125 0 1.609375 -0.546875q0.671875 -0.546875 0.90625 -1.640625zm6.6503906 1.015625l1.09375 0.125q-0.25 0.953125 -0.953125 1.484375q-0.703125 0.53125 -1.78125 0.53125q-1.359375 0 -2.171875 -0.84375q-0.796875 -0.84375 -0.796875 -2.359375q0 -1.5625 0.8125 -2.421875q0.8125 -0.875 2.09375 -0.875q1.25 0 2.03125 0.84375q0.796875 0.84375 0.796875 2.390625q0 0.09375 0 0.28125l-4.640625 0q0.0625 1.03125 0.578125 1.578125q0.515625 0.53125 1.296875 0.53125q0.578125 0 0.984375 -0.296875q0.421875 -0.3125 0.65625 -0.96875zm-3.453125 -1.703125l3.46875 0q-0.0625 -0.796875 -0.390625 -1.1875q-0.515625 -0.609375 -1.3125 -0.609375q-0.734375 0 -1.234375 0.484375q-0.484375 0.484375 -0.53125 1.3125zm5.845703 3.703125l0 -8.59375l1.0625 0l0 8.59375l-1.0625 0zm2.6660156 0l0 -8.59375l1.0625 0l0 8.59375l-1.0625 0zm6.7753906 0l0 -0.921875q-0.734375 1.0625 -1.984375 1.0625q-0.546875 0 -1.03125 -0.203125q-0.46875 -0.21875 -0.703125 -0.53125q-0.234375 -0.328125 -0.328125 -0.796875q-0.0625 -0.296875 -0.0625 -0.984375l0 -3.84375l1.0625 0l0 3.453125q0 0.8125 0.0625 1.109375q0.09375 0.40625 0.40625 0.65625q0.328125 0.234375 0.8125 0.234375q0.46875 0 0.875 -0.234375q0.421875 -0.25 0.59375 -0.671875q0.1875 -0.421875 0.1875 -1.21875l0 -3.328125l1.046875 0l0 6.21875l-0.9375 0zm2.5644531 0l0 -8.59375l1.0625 0l0 8.59375l-1.0625 0zm6.7597656 -0.765625q-0.59375 0.5 -1.140625 0.703125q-0.53125 0.203125 -1.15625 0.203125q-1.03125 0 -1.578125 -0.5q-0.546875 -0.5 -0.546875 -1.28125q0 -0.453125 0.203125 -0.828125q0.203125 -0.390625 0.546875 -0.609375q0.34375 -0.234375 0.765625 -0.34375q0.296875 -0.09375 0.9375 -0.171875q1.265625 -0.140625 1.875 -0.359375q0 -0.21875 0 -0.265625q0 -0.65625 -0.296875 -0.921875q-0.40625 -0.34375 -1.203125 -0.34375q-0.734375 0 -1.09375 0.265625q-0.359375 0.25 -0.53125 0.90625l-1.03125 -0.140625q0.140625 -0.65625 0.46875 -1.0625q0.328125 -0.40625 0.9375 -0.625q0.609375 -0.21875 1.40625 -0.21875q0.796875 0 1.296875 0.1875q0.5 0.1875 0.734375 0.46875q0.234375 0.28125 0.328125 0.71875q0.046875 0.265625 0.046875 0.96875l0 1.40625q0 1.46875 0.0625 1.859375q0.078125 0.390625 0.28125 0.75l-1.109375 0q-0.15625 -0.328125 -0.203125 -0.765625zm-0.09375 -2.359375q-0.578125 0.234375 -1.71875 0.40625q-0.65625 0.09375 -0.921875 0.21875q-0.265625 0.109375 -0.421875 0.328125q-0.140625 0.21875 -0.140625 0.5q0 0.421875 0.3125 0.703125q0.328125 0.28125 0.9375 0.28125q0.609375 0 1.078125 -0.265625q0.484375 -0.265625 0.703125 -0.734375q0.171875 -0.359375 0.171875 -1.046875l0 -0.390625zm2.6894531 3.125l0 -6.21875l0.953125 0l0 0.9375q0.359375 -0.65625 0.65625 -0.859375q0.3125 -0.21875 0.6875 -0.21875q0.53125 0 1.078125 0.328125l-0.359375 0.984375q-0.390625 -0.234375 -0.765625 -0.234375q-0.359375 0 -0.640625 0.21875q-0.265625 0.203125 -0.375 0.578125q-0.1875 0.5625 -0.1875 1.21875l0 3.265625l-1.046875 0zm3.7617188 -2.765625l1.0625 -0.09375q0.078125 0.65625 0.359375 1.0625q0.28125 0.40625 0.859375 0.671875q0.59375 0.25 1.328125 0.25q0.640625 0 1.140625 -0.1875q0.5 -0.203125 0.734375 -0.53125q0.25 -0.34375 0.25 -0.734375q0 -0.40625 -0.234375 -0.703125q-0.234375 -0.3125 -0.765625 -0.515625q-0.359375 -0.140625 -1.546875 -0.421875q-1.171875 -0.28125 -1.640625 -0.53125q-0.625 -0.328125 -0.921875 -0.796875q-0.296875 -0.484375 -0.296875 -1.078125q0 -0.640625 0.359375 -1.203125q0.375 -0.578125 1.078125 -0.859375q0.71875 -0.296875 1.578125 -0.296875q0.953125 0 1.6875 0.3125q0.734375 0.296875 1.125 0.90625q0.390625 0.59375 0.421875 1.34375l-1.09375 0.078125q-0.09375 -0.8125 -0.609375 -1.21875q-0.5 -0.421875 -1.484375 -0.421875q-1.03125 0 -1.5 0.375q-0.46875 0.375 -0.46875 0.90625q0 0.46875 0.328125 0.765625q0.328125 0.296875 1.703125 0.609375q1.390625 0.3125 1.90625 0.546875q0.75 0.359375 1.109375 0.890625q0.359375 0.515625 0.359375 1.21875q0 0.6875 -0.390625 1.296875q-0.390625 0.59375 -1.125 0.9375q-0.734375 0.328125 -1.65625 0.328125q-1.171875 0 -1.96875 -0.328125q-0.78125 -0.34375 -1.234375 -1.03125q-0.4375 -0.6875 -0.453125 -1.546875zm12.503906 0.765625l1.09375 0.125q-0.25 0.953125 -0.953125 1.484375q-0.703125 0.53125 -1.78125 0.53125q-1.359375 0 -2.171875 -0.84375q-0.796875 -0.84375 -0.796875 -2.359375q0 -1.5625 0.8125 -2.421875q0.8125 -0.875 2.09375 -0.875q1.25 0 2.03125 0.84375q0.796875 0.84375 0.796875 2.390625q0 0.09375 0 0.28125l-4.640625 0q0.0625 1.03125 0.578125 1.578125q0.515625 0.53125 1.296875 0.53125q0.578125 0 0.984375 -0.296875q0.421875 -0.3125 0.65625 -0.96875zm-3.453125 -1.703125l3.46875 0q-0.0625 -0.796875 -0.390625 -1.1875q-0.515625 -0.609375 -1.3125 -0.609375q-0.734375 0 -1.234375 0.484375q-0.484375 0.484375 -0.53125 1.3125zm5.861328 3.703125l0 -6.21875l0.953125 0l0 0.9375q0.359375 -0.65625 0.65625 -0.859375q0.3125 -0.21875 0.6875 -0.21875q0.53125 0 1.078125 0.328125l-0.359375 0.984375q-0.390625 -0.234375 -0.765625 -0.234375q-0.359375 0 -0.640625 0.21875q-0.265625 0.203125 -0.375 0.578125q-0.1875 0.5625 -0.1875 1.21875l0 3.265625l-1.046875 0zm5.7304688 0l-2.359375 -6.21875l1.109375 0l1.34375 3.71875q0.203125 0.609375 0.390625 1.25q0.140625 -0.484375 0.390625 -1.171875l1.390625 -3.796875l1.078125 0l-2.359375 6.21875l-0.984375 0zm4.28125 -7.375l0 -1.21875l1.0625 0l0 1.21875l-1.0625 0zm0 7.375l0 -6.21875l1.0625 0l0 6.21875l-1.0625 0zm6.7285156 -2.28125l1.03125 0.140625q-0.171875 1.0625 -0.875 1.671875q-0.703125 0.609375 -1.71875 0.609375q-1.28125 0 -2.0625 -0.828125q-0.765625 -0.84375 -0.765625 -2.40625q0 -1.0 0.328125 -1.75q0.34375 -0.765625 1.015625 -1.140625q0.6875 -0.375 1.5 -0.375q1.0 0 1.640625 0.515625q0.65625 0.5 0.84375 1.453125l-1.03125 0.15625q-0.140625 -0.625 -0.515625 -0.9375q-0.375 -0.328125 -0.90625 -0.328125q-0.796875 0 -1.296875 0.578125q-0.5 0.5625 -0.5 1.796875q0 1.265625 0.484375 1.828125q0.484375 0.5625 1.25 0.5625q0.625 0 1.03125 -0.375q0.421875 -0.375 0.546875 -1.171875zm6.1875 0.28125l1.09375 0.125q-0.25 0.953125 -0.953125 1.484375q-0.703125 0.53125 -1.78125 0.53125q-1.359375 0 -2.171875 -0.84375q-0.796875 -0.84375 -0.796875 -2.359375q0 -1.5625 0.8125 -2.421875q0.8125 -0.875 2.09375 -0.875q1.25 0 2.03125 0.84375q0.796875 0.84375 0.796875 2.390625q0 0.09375 0 0.28125l-4.640625 0q0.0625 1.03125 0.578125 1.578125q0.515625 0.53125 1.296875 0.53125q0.578125 0 0.984375 -0.296875q0.421875 -0.3125 0.65625 -0.96875zm-3.453125 -1.703125l3.46875 0q-0.0625 -0.796875 -0.390625 -1.1875q-0.515625 -0.609375 -1.3125 -0.609375q-0.734375 0 -1.234375 0.484375q-0.484375 0.484375 -0.53125 1.3125zm6.001953 3.703125l0 -8.59375l3.25 0q0.84375 0 1.296875 0.078125q0.640625 0.109375 1.0625 0.40625q0.4375 0.296875 0.6875 0.828125q0.265625 0.53125 0.265625 1.171875q0 1.09375 -0.703125 1.859375q-0.6875 0.75 -2.515625 0.75l-2.203125 0l0 3.5l-1.140625 0zm1.140625 -4.5l2.21875 0q1.109375 0 1.5625 -0.40625q0.46875 -0.421875 0.46875 -1.171875q0 -0.53125 -0.28125 -0.90625q-0.265625 -0.390625 -0.703125 -0.515625q-0.296875 -0.078125 -1.0625 -0.078125l-2.203125 0l0 3.078125zm6.7226562 4.5l0 -6.21875l0.953125 0l0 0.9375q0.359375 -0.65625 0.65625 -0.859375q0.3125 -0.21875 0.6875 -0.21875q0.53125 0 1.078125 0.328125l-0.359375 0.984375q-0.390625 -0.234375 -0.765625 -0.234375q-0.359375 0 -0.640625 0.21875q-0.265625 0.203125 -0.375 0.578125q-0.1875 0.5625 -0.1875 1.21875l0 3.265625l-1.046875 0zm3.6210938 -3.109375q0 -1.734375 0.953125 -2.5625q0.796875 -0.6875 1.953125 -0.6875q1.28125 0 2.09375 0.84375q0.828125 0.828125 0.828125 2.3125q0 1.203125 -0.359375 1.890625q-0.359375 0.6875 -1.0625 1.078125q-0.6875 0.375 -1.5 0.375q-1.296875 0 -2.109375 -0.828125q-0.796875 -0.84375 -0.796875 -2.421875zm1.078125 0q0 1.1875 0.515625 1.78125q0.53125 0.59375 1.3125 0.59375q0.796875 0 1.3125 -0.59375q0.515625 -0.59375 0.515625 -1.8125q0 -1.15625 -0.53125 -1.75q-0.515625 -0.59375 -1.296875 -0.59375q-0.78125 0 -1.3125 0.59375q-0.515625 0.578125 -0.515625 1.78125zm7.705078 3.109375l-2.359375 -6.21875l1.109375 0l1.34375 3.71875q0.203125 0.609375 0.390625 1.25q0.140625 -0.484375 0.390625 -1.171875l1.390625 -3.796875l1.078125 0l-2.359375 6.21875l-0.984375 0zm4.28125 -7.375l0 -1.21875l1.0625 0l0 1.21875l-1.0625 0zm0 7.375l0 -6.21875l1.0625 0l0 6.21875l-1.0625 0zm6.6972656 0l0 -0.78125q-0.59375 0.921875 -1.734375 0.921875q-0.75 0 -1.375 -0.40625q-0.625 -0.421875 -0.96875 -1.15625q-0.34375 -0.734375 -0.34375 -1.6875q0 -0.921875 0.3125 -1.6875q0.3125 -0.765625 0.9375 -1.15625q0.625 -0.40625 1.390625 -0.40625q0.5625 0 1.0 0.234375q0.4375 0.234375 0.71875 0.609375l0 -3.078125l1.046875 0l0 8.59375l-0.984375 0zm-3.328125 -3.109375q0 1.203125 0.5 1.796875q0.5 0.578125 1.1875 0.578125q0.6875 0 1.171875 -0.5625q0.484375 -0.5625 0.484375 -1.71875q0 -1.28125 -0.5 -1.875q-0.484375 -0.59375 -1.203125 -0.59375q-0.703125 0 -1.171875 0.578125q-0.46875 0.5625 -0.46875 1.796875zm10.220703 1.109375l1.09375 0.125q-0.25 0.953125 -0.953125 1.484375q-0.703125 0.53125 -1.78125 0.53125q-1.359375 0 -2.171875 -0.84375q-0.796875 -0.84375 -0.796875 -2.359375q0 -1.5625 0.8125 -2.421875q0.8125 -0.875 2.09375 -0.875q1.25 0 2.03125 0.84375q0.796875 0.84375 0.796875 2.390625q0 0.09375 0 0.28125l-4.640625 0q0.0625 1.03125 0.578125 1.578125q0.515625 0.53125 1.296875 0.53125q0.578125 0 0.984375 -0.296875q0.421875 -0.3125 0.65625 -0.96875zm-3.453125 -1.703125l3.46875 0q-0.0625 -0.796875 -0.390625 -1.1875q-0.515625 -0.609375 -1.3125 -0.609375q-0.734375 0 -1.234375 0.484375q-0.484375 0.484375 -0.53125 1.3125zm5.861328 3.703125l0 -6.21875l0.953125 0l0 0.9375q0.359375 -0.65625 0.65625 -0.859375q0.3125 -0.21875 0.6875 -0.21875q0.53125 0 1.078125 0.328125l-0.359375 0.984375q-0.390625 -0.234375 -0.765625 -0.234375q-0.359375 0 -0.640625 0.21875q-0.265625 0.203125 -0.375 0.578125q-0.1875 0.5625 -0.1875 1.21875l0 3.265625l-1.046875 0z" fill-rule="nonzero"/><path fill="#000000" fill-opacity="0.0" d="m170.00787 93.0l216.50394 -45.51181" fill-rule="evenodd"/><path stroke="#351c75" stroke-width="1.0" stroke-linejoin="round" stroke-linecap="butt" d="m170.00787 93.0l210.63226 -44.27751" fill-rule="evenodd"/><path fill="#351c75" stroke="#351c75" stroke-width="1.0" stroke-linecap="butt" d="m380.97992 50.33889l4.1012573 -2.549965l-4.7808228 -0.68284225z" fill-rule="evenodd"/></g></svg>