<?xml version="1.0" encoding="UTF-8" standalone="no"?>
<!-- Created with Inkscape (http://www.inkscape.org/) -->

<svg
   xmlns:dc="http://purl.org/dc/elements/1.1/"
   xmlns:cc="http://creativecommons.org/ns#"
   xmlns:rdf="http://www.w3.org/1999/02/22-rdf-syntax-ns#"
   xmlns:svg="http://www.w3.org/2000/svg"
   xmlns="http://www.w3.org/2000/svg"
   xmlns:sodipodi="http://sodipodi.sourceforge.net/DTD/sodipodi-0.dtd"
   xmlns:inkscape="http://www.inkscape.org/namespaces/inkscape"
   id="svg2"
   version="1.1"
   inkscape:version="0.91 r13725"
   width="48"
   height="48"
   viewBox="0 0 48 48"
   sodipodi:docname="product_logo_48.svg">
  <metadata
     id="metadata8">
    <rdf:RDF>
      <cc:Work
         rdf:about="">
        <dc:format>image/svg+xml</dc:format>
        <dc:type
           rdf:resource="http://purl.org/dc/dcmitype/StillImage" />
        <dc:title></dc:title>
      </cc:Work>
    </rdf:RDF>
  </metadata>
  <defs
     id="defs6" />
  <sodipodi:namedview
     pagecolor="#ffffff"
     bordercolor="#666666"
     borderopacity="1"
     objecttolerance="10"
     gridtolerance="10"
     guidetolerance="10"
     inkscape:pageopacity="0"
     inkscape:pageshadow="2"
     inkscape:window-width="1366"
     inkscape:window-height="627"
     id="namedview4"
     showgrid="false"
     inkscape:zoom="4.9166667"
     inkscape:cx="24"
     inkscape:cy="24"
     inkscape:window-x="0"
     inkscape:window-y="24"
     inkscape:window-maximized="1"
     inkscape:current-layer="svg2" />
  <ellipse
     style="fill:#ffff47;fill-opacity:0;stroke:#0e0000;stroke-width:2.1;stroke-miterlimit:4;stroke-dasharray:none;stroke-opacity:1"
     id="path4138"
     cx="24.203386"
     cy="24.101694"
     rx="19.728813"
     ry="19.423729" />
  <path
     style="fill:#fee78a;fill-opacity:1;fill-rule:evenodd;stroke:#000000;stroke-width:1px;stroke-linecap:butt;stroke-linejoin:miter;stroke-opacity:1"
     d="m 20.520601,20.666345 c 0.514284,-1.031439 0.150753,-0.758157 0.817412,-1.092415 0.06061,-0.03039 0.13393,-0.04317 0.181816,-0.09116 0.31599,-0.316696 0.319604,-0.684559 0.635595,-1.001255 0.04789,-0.04799 0.13393,-0.04317 0.181816,-0.09116 0.107076,-0.107316 0.165394,-0.256823 0.27247,-0.364138 0.04789,-0.048 0.133931,-0.04317 0.181816,-0.09116 0.107077,-0.107316 0.165395,-0.256823 0.272471,-0.364139 0.04789,-0.04799 0.12121,-0.06077 0.181816,-0.09116 0.303026,-0.151936 0.606053,-0.303871 0.90908,-0.455807 1.575738,-0.790065 3.151476,-1.580129 4.727214,-2.370194 0.424237,-0.21271 0.848474,-0.42542 1.272711,-0.638129 0.08188,-0.04106 0.476243,-0.273408 0.545448,-0.273484 0.191759,-2.11e-4 0.354197,0.181523 0.545955,0.181309 0.0678,-7.6e-5 0.114019,-0.09109 0.181816,-0.09116 0.09588,-1.07e-4 0.177099,0.09076 0.272977,0.09065 0.0678,-7.6e-5 0.11402,-0.09109 0.181816,-0.09116 0.08133,-9e-5 1.003592,0.312282 1.091909,0.362619 0.131706,0.07507 0.24276,0.181647 0.364139,0.27247 0.121382,0.09082 0.256824,0.165394 0.364139,0.272471 0.04799,0.04789 0.03688,0.141198 0.09116,0.181815 0.153537,0.114883 0.39242,0.06643 0.545955,0.18131 0.05428,0.04062 0.06077,0.12121 0.09116,0.181816 0.121382,0.09082 0.232431,0.197404 0.364138,0.272471 0.0833,0.04748 0.19621,0.03321 0.272977,0.09065 0.06585,0.04926 0.392401,0.78262 0.455807,0.90908 0.182322,0.363632 0.364645,0.727264 0.546968,1.090895 0.0599,0.119473 0.256244,0.425724 0.273484,0.545448 0.02698,0.187341 0.0253,1.172418 0.0015,1.36438 -0.0595,0.48033 -0.359541,0.635319 -0.726756,0.819439 -0.06061,0.03039 -0.133931,0.04317 -0.181817,0.09116 -0.275029,0.275643 -0.259403,0.324788 -0.363125,0.637115 -0.03022,0.091 -0.03321,0.196211 -0.09065,0.272977 -0.04926,0.06584 -0.78262,0.392401 -0.909081,0.455807 -0.787869,0.395033 -1.575737,0.790065 -2.363606,1.185097 -1.151502,0.577356 -2.303003,1.154711 -3.454503,1.732066 -0.484843,0.243096 -0.969686,0.486193 -1.454528,0.72929 -0.09508,0.04767 -0.667472,0.364579 -0.727264,0.364645 -0.09588,1.07e-4 -0.177098,-0.09076 -0.272977,-0.09065 -0.0678,7.5e-5 -0.114711,0.0815 -0.181816,0.09116 -0.15005,0.02161 -0.304743,-0.0211 -0.454793,5.06e-4 -0.06711,0.0097 -0.114019,0.09109 -0.181816,0.09116 -0.09588,1.07e-4 -0.177098,-0.09076 -0.272977,-0.09065 -0.0678,7.6e-5 -0.114711,0.0815 -0.181816,0.09116 -0.388225,0.0559 -0.649359,-0.06411 -1.000748,-0.180803"
     id="path4140"
     inkscape:connector-curvature="0" />
  <path
     style="fill:#fee78a;fill-opacity:1;fill-rule:evenodd;stroke:#000000;stroke-width:1.15990496px;stroke-linecap:butt;stroke-linejoin:miter;stroke-opacity:1"
     d="m 21.112665,19.672375 c -3.334761,-0.473979 -0.722251,0.180853 -1.427914,-0.373061 -0.14034,-0.110159 -0.317461,-0.186878 -0.476191,-0.280316 -0.158734,-0.09344 -0.288043,-0.231164 -0.476193,-0.280317 -0.86703,-0.226524 -0.313688,0.193339 -0.951722,-0.09275 -0.253695,-0.113755 -0.492257,-0.37388 -0.833169,-0.373582 -0.237899,2.05e-4 -0.475394,0.281155 -0.713294,0.281359 -0.250767,2.16e-4 -0.463191,-0.18675 -0.713957,-0.18653 -0.08866,7.7e-5 -0.15851,0.06252 -0.237763,0.09379 -0.537168,0.211886 0.08856,-0.06982 -0.594081,0.468411 -0.210427,0.165911 -0.740632,0.209234 -0.951059,0.375146 -0.140026,0.110406 -0.216291,0.264219 -0.356315,0.374625 -0.210427,0.165911 -0.740633,0.209234 -0.951059,0.375145 -0.359661,0.283581 -0.339227,0.334142 -0.474866,0.655463 -0.03952,0.09362 -0.04343,0.20186 -0.118558,0.280838 -0.106226,0.111692 -0.350286,0.08882 -0.475528,0.187572 -0.362289,0.285653 -0.440812,0.574794 -0.593418,0.936302 -0.03952,0.09362 -0.05647,0.19514 -0.118545,0.280837 -0.09817,0.1355 -0.293836,0.226607 -0.356316,0.374625 -0.05588,0.13239 0.213157,0.236029 0.238427,0.374103 0.02826,0.154373 -0.02759,0.313519 6.62e-4,0.46789 0.01268,0.06904 0.106579,0.118014 0.119212,0.187052 0.02826,0.154371 -0.02759,0.313518 6.62e-4,0.467889 0.02508,0.137025 0.380884,0.597624 0.476855,0.748207 0.317903,0.498805 0.635805,0.997608 0.953708,1.496412 0.08449,0.132583 0.653726,1.086071 0.715282,1.12231 0.130668,0.07692 0.583282,0.109606 0.713957,0.18653 0.07098,0.04179 0.04823,0.145265 0.119212,0.187052 0.100394,0.05909 0.237986,0.06218 0.35698,0.09327 0.119002,0.03109 0.231594,0.09337 0.356977,0.09326 0.07819,-6.9e-5 0.826726,-0.326103 0.951058,-0.375146 0.871804,-0.343884 1.743607,-0.687768 2.615412,-1.031651 -0.966837,0.922086 -1.26641,0.967688 -2.376984,1.405755 -0.07926,0.03127 -0.158509,0.06252 -0.237765,0.09379 -0.07926,0.03127 -0.184649,0.03794 -0.237765,0.09379 -0.07512,0.07898 -0.07904,0.187224 -0.118545,0.280838 -0.03952,0.09362 -0.07904,0.187225 -0.118545,0.280838 -0.03952,0.09362 -0.07904,0.187225 -0.118545,0.280838 -0.03952,0.09362 -0.118688,0.182198 -0.118545,0.280837 9.9e-5,0.06975 0.10658,0.118015 0.119212,0.187052 0.02826,0.154372 -0.02759,0.313519 6.63e-4,0.46789 0.02515,0.137405 0.488614,0.766656 0.596068,0.935257 0.19869,0.311754 0.397378,0.623506 0.596068,0.935259 0.07947,0.1247 0.112909,0.275574 0.238428,0.374103 0.140338,0.11016 0.335853,0.170157 0.476193,0.280317 0.06276,0.04927 0.05645,0.137787 0.119211,0.187051 0.280678,0.22032 0.671708,0.340315 0.952384,0.560634 0.590808,0.463759 -0.807599,-0.161719 0.595404,0.467368 0.217865,0.09768 0.496094,0.08885 0.713957,0.186531 0.172237,0.07723 0.288044,0.231164 0.476193,0.280317 0.08414,0.02199 0.15851,-0.06252 0.237765,-0.09379 0.07926,-0.03126 0.15851,-0.06252 0.237764,-0.09378 0.47553,-0.187573 0.951059,-0.375146 1.426589,-0.562718 0.107076,-0.04224 0.659074,-0.224354 0.713292,-0.28136 0.81536,-0.857255 -0.959523,0.475504 0.474868,-0.655464 0.186565,-0.147096 1.311077,-0.441278 1.426588,-0.562717 0.07512,-0.07898 0.07904,-0.187226 0.118545,-0.280839 0.03952,-0.09362 0.118689,-0.182198 0.118558,-0.280838 -9.9e-5,-0.06975 -0.11912,-0.117302 -0.119212,-0.187052 -2.75e-4,-0.197281 0.237382,-0.364396 0.237102,-0.561675 -1.96e-4,-0.139499 -0.23823,-0.234606 -0.238426,-0.374103 -1.4e-4,-0.09864 0.118689,-0.182198 0.118545,-0.280839 -1.96e-4,-0.139498 -0.213156,-0.236028 -0.238427,-0.374103 -0.02826,-0.154371 -4.42e-4,-0.311926 -6.63e-4,-0.46789 -2.17e-4,-0.155965 -0.02503,-0.313109 -6.63e-4,-0.467889 0.0591,-0.375371 0.593954,-0.55789 0.593418,-0.936301 -9.8e-5,-0.06975 -0.11912,-0.117302 -0.119212,-0.187052 -1.4e-4,-0.09864 0.07904,-0.187225 0.118558,-0.280837 0.03952,-0.09362 0.05647,-0.19514 0.118545,-0.280839 0.144596,-0.199585 0.475247,-0.387264 0.474868,-0.655462 -9.8e-5,-0.06975 -0.07947,-0.124701 -0.119212,-0.187052"
     id="path4142"
     inkscape:connector-curvature="0" />
  <path
     style="fill:#e36e2f;fill-opacity:1;fill-rule:evenodd;stroke:#000000;stroke-width:1.04072785px;stroke-linecap:butt;stroke-linejoin:miter;stroke-opacity:1"
     d="m 28.169404,14.010979 c -0.826162,2.740155 -0.194304,0.224153 -0.35908,1.68939 -0.02338,0.20786 -0.180005,0.386875 -0.179792,0.596323 7.4e-5,0.07405 0.08081,0.125293 0.09039,0.198589 0.02143,0.163892 -0.02093,0.332856 5.02e-4,0.49675 0.01916,0.146591 0.161635,0.250586 0.180798,0.397176 0.02143,0.163896 -0.02093,0.332859 5.02e-4,0.496751 0.0096,0.0733 0.06026,0.132393 0.09039,0.198589 0.0303,0.231783 0.07301,0.461999 0.0909,0.69534 0.218085,0.303731 -0.08966,0.527914 -0.08939,0.79491 1.57e-4,0.158718 0.337207,0.607798 0.361594,0.794356 0.02143,0.163895 -0.02093,0.332856 5.03e-4,0.496751 0.01907,0.145879 0.37051,0.813944 0.451993,0.992945 0.04071,0.08944 0.216248,0.550481 0.271195,0.595768 0.0747,0.06156 0.710115,0.283142 0.81208,0.297053 0.149188,0.02035 0.301798,-0.02091 0.450989,-5.52e-4 0.09436,0.01287 0.18046,0.06601 0.270692,0.09901 0.09024,0.03301 0.18809,0.04717 0.270692,0.09902 0.130604,0.08199 0.230488,0.215615 0.361093,0.297607 0.52384,0.328859 0.05182,-5.8e-5 0.450987,-5.53e-4 0.09509,-1.16e-4 0.180461,0.06601 0.270693,0.09902 0.09024,0.03301 0.180462,0.06602 0.270693,0.09901"
     id="path4154"
     inkscape:connector-curvature="0" />
  <path
     style="fill:none;fill-rule:evenodd;stroke:#000000;stroke-width:1.22589016px;stroke-linecap:butt;stroke-linejoin:miter;stroke-opacity:1"
     d="M 35.596078,17.398401 32.319351,17.178017"
     id="path4158"
     inkscape:connector-curvature="0" />
</svg>
